<svg width="21" height="14" viewBox="0 0 21 14" fill="none" xmlns="http://www.w3.org/2000/svg">
<path d="M14.338 3.769H6.222C5.70506 3.769 5.286 4.18806 5.286 4.705V12.47C5.286 12.9869 5.70506 13.406 6.222 13.406H14.338C14.8549 13.406 15.274 12.9869 15.274 12.47V4.705C15.274 4.18806 14.8549 3.769 14.338 3.769Z" stroke="currentColor" stroke-width="0.936"/>
<path fill-rule="evenodd" clip-rule="evenodd" d="M7.43 3.714H13.13V1.732C13.1305 1.6364 13.1122 1.54163 13.0761 1.4531C13.04 1.36457 12.9868 1.28402 12.9196 1.21605C12.8524 1.14808 12.7724 1.09401 12.6843 1.05694C12.5962 1.01987 12.5016 1.00052 12.406 1H8.154C7.96149 1.00313 7.77784 1.08148 7.64235 1.21827C7.50686 1.35507 7.43028 1.53946 7.429 1.732V3.714H7.43Z" stroke="currentColor" stroke-width="0.936"/>
<path d="M18.624 3.769H1.936C1.41906 3.769 1 4.18806 1 4.705V12.47C1 12.9869 1.41906 13.406 1.936 13.406H18.624C19.1409 13.406 19.56 12.9869 19.56 12.47V4.705C19.56 4.18806 19.1409 3.769 18.624 3.769Z" stroke="currentColor" stroke-width="0.936"/>
</svg>
