<svg width="22" height="15" viewBox="0 0 22 15" fill="none" xmlns="http://www.w3.org/2000/svg">
<path d="M10.8715 1.02577L1.1875 5.24177C0.9375 5.35777 0.9375 5.83077 1.1875 5.94677L1.6615 6.15077V8.77277C1.55414 8.84513 1.46648 8.94307 1.40642 9.05777C1.34637 9.17247 1.31581 9.30031 1.3175 9.42977C1.3175 9.84977 1.6305 10.1968 2.0075 10.1968C2.3855 10.1968 2.6995 9.84877 2.6995 9.42977C2.70108 9.30022 2.67037 9.17232 2.61014 9.05761C2.5499 8.94291 2.46205 8.84501 2.3545 8.77277V6.45077L4.4515 7.37177C4.43583 7.41812 4.42839 7.46685 4.4295 7.51577V11.3458C4.4295 11.7958 4.6995 12.1468 5.0555 12.4468C5.4135 12.7488 5.8975 13.0188 6.4835 13.2508C7.6555 13.7108 9.2385 14.0268 10.9995 14.0268C12.7625 14.0268 14.3455 13.7098 15.5175 13.2498C16.1035 13.0198 16.5875 12.7488 16.9455 12.4468C17.3005 12.1468 17.5715 11.7968 17.5715 11.3468V7.51677C17.572 7.46756 17.5646 7.4186 17.5495 7.37177L20.8135 5.94677C21.0635 5.83077 21.0635 5.35677 20.8135 5.24177L11.1315 1.02477C11.0495 0.978768 10.9115 1.00777 10.8715 1.02477V1.02577ZM11.0015 1.79277L19.7445 5.59677L11.0015 9.39177L2.2585 5.59877L11.0005 1.79277H11.0015ZM5.1215 7.65777L10.8715 10.1598C10.9124 10.178 10.9567 10.1875 11.0015 10.1875C11.0463 10.1875 11.0906 10.178 11.1315 10.1598L16.8815 7.65777V11.3448C16.8815 11.4218 16.7945 11.6068 16.5235 11.8358C16.1515 12.1258 15.7355 12.3558 15.2915 12.5158C14.2135 12.9418 12.6875 13.2588 11.0015 13.2588C9.3155 13.2588 7.7895 12.9418 6.7115 12.5168C6.2675 12.3558 5.8515 12.1268 5.4795 11.8368C5.2065 11.6068 5.1215 11.4218 5.1215 11.3448V7.65777Z" fill="currentColor" stroke="currentColor" stroke-width="0.5"/>
</svg>
