<svg width="11" height="19" viewBox="0 0 11 19" fill="none" xmlns="http://www.w3.org/2000/svg">
<path d="M8.30516e-07 9.5C8.16092e-07 9.335 0.0630015 9.18905 0.189004 9.06213L8.99656 0.190381C9.12257 0.0634604 9.26747 1.51463e-07 9.43127 1.37143e-07C9.59507 1.22822e-07 9.73998 0.0634604 9.86598 0.190381L10.811 1.14228C10.937 1.26921 11 1.41516 11 1.58016C11 1.74516 10.937 1.89112 10.811 2.01804L3.38316 9.5L10.811 16.982C10.937 17.1089 11 17.2548 11 17.4198C11 17.5848 10.937 17.7308 10.811 17.8577L9.86598 18.8096C9.73998 18.9365 9.59508 19 9.43127 19C9.26747 19 9.12257 18.9365 8.99657 18.8096L0.189004 9.93788C0.0630015 9.81096 8.44941e-07 9.665 8.30516e-07 9.5Z" fill="#E8E8E8"/>
</svg>
