<svg width="11" height="19" viewBox="0 0 11 19" fill="none" xmlns="http://www.w3.org/2000/svg">
<path d="M11 9.5C11 9.665 10.937 9.81096 10.811 9.93788L2.00344 18.8096C1.87743 18.9365 1.73253 19 1.56873 19C1.40493 19 1.26002 18.9365 1.13402 18.8096L0.189003 17.8577C0.0630011 17.7308 0 17.5848 0 17.4198C0 17.2548 0.0630011 17.1089 0.189003 16.982L7.61684 9.5L0.189003 2.01804C0.0630011 1.89112 0 1.74516 0 1.58016C0 1.41516 0.0630011 1.26921 0.189003 1.14228L1.13402 0.190382C1.26002 0.0634613 1.40493 0 1.56873 0C1.73253 0 1.87743 0.0634613 2.00344 0.190382L10.811 9.06212C10.937 9.18904 11 9.335 11 9.5Z" fill="#E8E8E8"/>
</svg>
