<svg width="20" height="20" viewBox="0 0 20 20" fill="none" xmlns="http://www.w3.org/2000/svg">
<path d="M1.20601 6.732L0.644012 7.04C0.489633 7.1243 0.354954 7.24047 0.24892 7.38082C0.142887 7.52116 0.0679247 7.68246 0.0290123 7.854C-0.0479877 8.199 0.0290122 8.559 0.240012 8.845L0.622012 9.352C0.775077 9.55915 0.857676 9.80993 0.857676 10.0675C0.857676 10.3251 0.775077 10.5758 0.622012 10.783L0.240012 11.311C-0.186988 11.906 0.0160123 12.764 0.667012 13.094L1.22901 13.403C1.70001 13.645 1.97001 14.173 1.88001 14.679L1.76801 15.296C1.70501 15.646 1.80001 16.004 2.02801 16.279C2.25801 16.553 2.59601 16.717 2.95801 16.727L3.60801 16.749C4.14801 16.771 4.62001 17.124 4.75401 17.63L4.93401 18.247C5.13701 18.95 5.94601 19.325 6.64101 19.039L7.24801 18.797C7.49068 18.6966 7.75813 18.6723 8.01493 18.7273C8.27173 18.7823 8.50575 18.914 8.68601 19.105L9.11201 19.59C9.35301 19.855 9.69901 20.004 10.061 20C10.422 19.996 10.764 19.838 10.999 19.568L11.426 19.083C11.5997 18.8901 11.8284 18.755 12.0812 18.696C12.334 18.637 12.5988 18.6569 12.84 18.753L13.447 18.995C13.779 19.133 14.156 19.122 14.479 18.965C14.802 18.809 15.04 18.523 15.131 18.18L15.31 17.564C15.3815 17.3119 15.5308 17.0888 15.7366 16.9267C15.9424 16.7645 16.1942 16.6715 16.456 16.661L17.108 16.617C17.466 16.593 17.798 16.422 18.02 16.145C18.243 15.868 18.335 15.511 18.274 15.165L18.164 14.548C18.119 14.293 18.1554 14.0302 18.2682 13.797C18.3809 13.5639 18.5642 13.3721 18.792 13.249L19.353 12.941C19.5076 12.8568 19.6425 12.7407 19.7487 12.6003C19.8549 12.46 19.93 12.2986 19.969 12.127C20.046 11.782 19.969 11.421 19.758 11.135L19.376 10.628C19.2232 10.4209 19.1407 10.1704 19.1407 9.913C19.1407 9.65564 19.2232 9.40506 19.376 9.198L19.758 8.67C20.184 8.075 19.982 7.217 19.331 6.885L18.769 6.577C18.5398 6.46012 18.3534 6.27377 18.2365 6.0446C18.1196 5.81543 18.0781 5.55516 18.118 5.301L18.23 4.684C18.2611 4.5111 18.2539 4.3335 18.209 4.16368C18.1641 3.99385 18.0825 3.83593 17.97 3.701C17.8557 3.5646 17.7136 3.45411 17.5532 3.37686C17.3929 3.29962 17.2179 3.25739 17.04 3.253L16.389 3.231C16.1292 3.2252 15.8781 3.13676 15.672 2.97852C15.4659 2.82027 15.3157 2.60046 15.243 2.351L15.063 1.734C14.861 1.029 14.053 0.655996 13.357 0.940996L12.683 1.184C12.4405 1.28418 12.1732 1.30837 11.9166 1.25338C11.66 1.19838 11.4262 1.06678 11.246 0.875996L10.819 0.390996C10.698 0.263697 10.5517 0.163209 10.3894 0.0960288C10.2271 0.0288489 10.0526 -0.00352655 9.87701 0.000996074C9.70133 0.00457366 9.52837 0.0450619 9.36936 0.119832C9.21034 0.194601 9.06883 0.30198 8.95401 0.434996L8.52801 0.918996C8.35423 1.11214 8.12539 1.24733 7.87237 1.30634C7.61934 1.36535 7.35431 1.34533 7.11301 1.249L6.50701 1.008C6.34243 0.93994 6.16533 0.907432 5.98731 0.912602C5.80929 0.917772 5.63437 0.960504 5.47401 1.038C5.31529 1.11402 5.17486 1.22343 5.06233 1.35874C4.9498 1.49405 4.86783 1.65207 4.82201 1.822L4.64201 2.439C4.57048 2.69059 4.4214 2.91321 4.21601 3.07516C4.01061 3.23711 3.75935 3.33013 3.49801 3.341L2.84601 3.384C2.48601 3.408 2.15401 3.58 1.93201 3.857C1.82217 3.99314 1.74269 4.15119 1.69889 4.32055C1.65508 4.4899 1.64796 4.66667 1.67801 4.839L1.79001 5.455C1.92401 5.939 1.67801 6.468 1.20601 6.732V6.732Z" fill="#2180E8"/>
<path d="M14.902 6.37999C14.7789 6.25672 14.6322 6.15954 14.4707 6.09425C14.3092 6.02896 14.1362 5.9969 13.962 5.99999C13.622 5.99999 13.28 6.12599 13.046 6.37999L8.86201 10.314L7.24001 8.91399C7.1201 8.79287 6.97724 8.69689 6.81978 8.63164C6.66233 8.56639 6.49345 8.53319 6.32301 8.53399C5.98301 8.53399 5.64101 8.65999 5.38401 8.91399C5.12901 9.16599 5.00001 9.48399 5.00001 9.82199C5.00001 10.159 5.12901 10.498 5.38401 10.73L7.94601 13.674C8.20101 13.926 8.52101 14.053 8.86201 14.053C9.20401 14.053 9.54601 13.926 9.78001 13.673L14.88 8.21699C15.136 7.96399 15.286 7.62499 15.286 7.28699C15.286 6.95099 15.158 6.61199 14.901 6.37899H14.902V6.37999Z" fill="white" stroke="#2180E8"/>
</svg>
